<?xml version="1.0" encoding="UTF-8"?>
<svg id="Layer_1" data-name="Layer 1" xmlns="http://www.w3.org/2000/svg" viewBox="0 0 1080 1080">
  <defs>
    <style>
      .cls-1 {
        fill: #fff;
      }
    </style>
  </defs>
  <path class="cls-1" d="M55.81,492.8c-8,12.97-12.41,29.73-12.41,47.2s4.41,34.24,12.41,47.2c10,16.21,25.06,25.5,41.32,25.5h91.38v-46.25h-90.47c-2.77-2.02-8.39-11.43-8.39-26.46s5.62-24.44,8.39-26.46h90.47v-46.25h-91.38c-16.25,0-31.31,9.3-41.32,25.5Z"/>
  <path class="cls-1" d="M480.43,467.45c-11.14,0-21.48,3.52-30.02,9.51-8.71-5.99-19.26-9.51-30.62-9.51-29.76,0-53.97,24.1-53.97,53.72v91.38h46.25v-91.38c0-4.12,3.46-7.47,7.72-7.47s7.72,3.35,7.72,7.47v17.51c-.02.39-.03.79-.03,1.19,0,12.78,10.36,23.14,23.14,23.14s23.14-10.36,23.14-23.14c0-.02,0-.05,0-.07v-18.62c0-4.12,2.99-7.47,6.66-7.47s6.66,3.35,6.66,7.47v91.38h46.25v-91.38c0-29.62-23.74-53.72-52.91-53.72Z"/>
  <path class="cls-1" d="M549.29,513.28c0,9.65,3.05,18.61,8.24,26-5.19,7.54-8.24,16.68-8.24,26.52,0,25.78,20.88,46.75,46.54,46.75h79.16v-40.06h-79.16c-3.57,0-6.47-3-6.47-6.69s2.9-6.69,6.47-6.69h15.16c.34.02.69.03,1.03.03,11.07,0,20.05-8.97,20.05-20.05s-8.97-20.05-20.05-20.05c-.02,0-.04,0-.06,0h-16.13c-3.57,0-6.47-2.59-6.47-5.77s2.9-5.77,6.47-5.77h79.16v-40.06h-79.16c-25.66,0-46.54,20.56-46.54,45.83Z"/>
  <path class="cls-1" d="M788.26,566.2h-43.59c-2.98,0-7.47-5.32-7.47-13.34v-85.32h-46.25v85.32c0,15.17,5.1,29.6,14.37,40.65,10.1,12.04,24.44,18.94,39.35,18.94h43.59c12.77,0,23.12-10.35,23.12-23.12s-10.35-23.12-23.12-23.12Z"/>
  <path class="cls-1" d="M850.46,467.3c-12.77,0-23.12,10.35-23.12,23.12v122.27h46.25v-122.27c0-12.77-10.35-23.12-23.12-23.12Z"/>
  <path class="cls-1" d="M324.38,479.85c-12.97-8-29.73-12.41-47.2-12.41s-34.24,4.41-47.2,12.41c-16.21,10-25.5,25.06-25.5,41.32v91.38h46.25v-90.47c2.02-2.77,11.43-8.39,26.46-8.39s24.44,5.62,26.46,8.39v17.99c-.59-.04-1.18-.08-1.78-.08h-.86c-12.86,0-23.26,10.5-23.12,23.36h0c.13,12.68,10.44,22.89,23.12,22.89h.86c.6,0,1.19-.03,1.78-.08v26.38h46.25v-91.38c0-16.25-9.3-31.31-25.5-41.32Z"/>
  <path class="cls-1" d="M1011.09,479.85c-12.97-8-29.73-12.41-47.2-12.41s-34.24,4.41-47.2,12.41c-16.21,10-25.5,25.06-25.5,41.32v91.38h46.25v-90.47c2.02-2.77,11.43-8.39,26.46-8.39s24.44,5.62,26.46,8.39v18.03c-.77-.08-1.56-.12-2.36-.12h-.86c-12.86,0-23.26,10.5-23.12,23.36h0c.13,12.68,10.44,22.89,23.12,22.89h.86c.8,0,1.58-.04,2.36-.12v26.42h46.25v-91.38c0-16.25-9.3-31.31-25.5-41.32Z"/>
</svg>